HIERARCHY
ROOT Root
{
	OFFSET 0.00000 0.00000 0.00000
	CHANNELS 6 Xposition Yposition Zposition Zrotation Xrotation Yrotation
	JOINT Hips
	{
		OFFSET 0 0 0	
		CHANNELS 3 Zrotation Xrotation Yrotation
		JOINT Spine
		{
			OFFSET 0 4 0	
			CHANNELS 3 Zrotation Xrotation Yrotation
			JOINT Spine1
			{
				OFFSET 0 19.4 0	
				CHANNELS 3 Zrotation Xrotation Yrotation
				JOINT Spine2
				{
					OFFSET 0 16.6 0	
					CHANNELS 3 Zrotation Xrotation Yrotation
					JOINT LeftCollar
					{
						OFFSET 0 10 0	
						CHANNELS 3 Zrotation Xrotation Yrotation
						JOINT LeftArm
						{
							OFFSET 15.6 -2 3	
							CHANNELS 3 Zrotation Xrotation Yrotation
							JOINT LeftForeArm
							{
								OFFSET 3.5 -27 -1	
								CHANNELS 3 Zrotation Xrotation Yrotation
								JOINT LeftHand
								{
									OFFSET 1 -27 1	
									CHANNELS 3 Zrotation Xrotation Yrotation
									End Site
									{
										OFFSET 0 -15 0
									}
								}
							}
						}
					}
					JOINT RightCollar
					{
						OFFSET 0 10 0	
						CHANNELS 3 Zrotation Xrotation Yrotation
						JOINT RightArm
						{
							OFFSET -15.6 -2 3	
							CHANNELS 3 Zrotation Xrotation Yrotation
							JOINT RightForeArm
							{
								OFFSET -3.5 -27 -1	
								CHANNELS 3 Zrotation Xrotation Yrotation
								JOINT RightHand
								{
									OFFSET -1 -27 1	
									CHANNELS 3 Zrotation Xrotation Yrotation
									End Site
									{
										OFFSET 0 -15 0
									}
								}
							}
						}
					}
					JOINT Neck
					{
						OFFSET 0 10 0	
						CHANNELS 3 Zrotation Xrotation Yrotation
						JOINT Head
						{
							OFFSET 0 12.7 3	
							CHANNELS 3 Zrotation Xrotation Yrotation
							End Site
							{
								OFFSET 0 12.7 3
							}
						}
					}
				}
			}
		}
	}
	JOINT LeftHip
	{
		OFFSET 0 0 0	
		CHANNELS 3 Zrotation Xrotation Yrotation
		JOINT LeftUpLeg
		{
			OFFSET 8.8 -6 0	
			CHANNELS 3 Zrotation Xrotation Yrotation
			JOINT LeftLeg
			{
				OFFSET 0 -39 2	
				CHANNELS 3 Zrotation Xrotation Yrotation
				JOINT LeftFoot
				{
					OFFSET 0 -43 -2	
					CHANNELS 3 Zrotation Xrotation Yrotation
					JOINT LeftFootFront
					{
						OFFSET 0 -7 8.5	
						CHANNELS 3 Zrotation Xrotation Yrotation
						End Site
						{
							OFFSET 0 -0.5 9
						}
					}
				}
				JOINT LeftHeel
				{
					OFFSET 0 -43 -2	
					CHANNELS 3 Zrotation Xrotation Yrotation
					End Site
					{
						OFFSET 0 -7.5 -5
					}
				}
			}
		}
	}
	JOINT RightHip
	{
		OFFSET 0 0 0	
		CHANNELS 3 Zrotation Xrotation Yrotation
		JOINT RightUpLeg
		{
			OFFSET -8.8 -6 0	
			CHANNELS 3 Zrotation Xrotation Yrotation
			JOINT RightLeg
			{
				OFFSET 0 -39 2	
				CHANNELS 3 Zrotation Xrotation Yrotation
				JOINT RightFoot
				{
					OFFSET 0 -43 -2	
					CHANNELS 3 Zrotation Xrotation Yrotation
					JOINT RightFootFront
					{
						OFFSET 0 -7 8.5	
						CHANNELS 3 Zrotation Xrotation Yrotation
						End Site
						{
							OFFSET 0 -0.5 9
						}
					}
				}
				JOINT RightHeel
				{
					OFFSET 0 -43 -2	
					CHANNELS 3 Zrotation Xrotation Yrotation
					End Site
					{
						OFFSET 0 -7.5 -5
					}
				}
			}
		}
	}
}
MOTION
Frames: 12
Frame Time: 0.025
161.11 59.895 -57.737 -0 0 -0 -49.136 15.634 -1.0213 -4.721 2.8922 24.86 -4.721 2.8922 24.86 -3.8873 2.5717 20.865 -0 0 -0 17.208 -1.7474 -69.852 7.1751 -18.692 52.802 0.74888 31.816 -4.5329 -0 0 -0 3.1888 -10.204 -115.25 2.1261 -0.59881 92.322 -2.253 -0.2527 -95.01 3.0974 -7.5515 -11.352 3.0974 -7.5515 -11.352 -49.136 15.634 -1.0213 -1.2885 -3.8204 55.341 5.2609 2.4766 -94.9 -11.082 -1.465 -3.9396 2.7376 0.46045 -0.20481 -0 0 -0 -49.136 15.634 -1.0213 -1.2859 1.373 -3.6066 -9.185 5.2829 -44.591 -5.1483 1.8426 6.754 1.6816 0.74125 0.592 -0 0 -0 
157.58 58.536 -53.7 -0 0 -0 -62.35 29.968 4.9746 -6.4541 3.1771 23.04 -6.4541 3.1771 23.04 -5.3424 2.8477 19.329 -0 0 -0 20.765 -2.6285 -62.934 7.7141 -20.69 52.418 -0.084987 32.946 -9.0782 -0 0 -0 7.7228 -14.803 -110.49 2.2303 -1.3561 93.134 -1.63 -3.8219 -97.276 4.9874 -10.823 -7.5728 4.9874 -10.823 -7.5728 -62.35 29.968 4.9746 -3.2581 -5.1444 53.814 8.2519 -0.33212 -93.086 -11.678 -2.1133 -6.7194 1.0045 0.69802 0.70263 -0 0 -0 -62.35 29.968 4.9746 -0.25592 1.3035 -4.0587 -11.561 6.0098 -46.299 -4.1549 0.59789 6.5367 -0.22743 0.71396 0.9534 -0 0 -0 
153.39 57.348 -49.593 -0 0 -0 -83.728 42.606 17.063 -6.8753 2.5704 20.738 -6.8753 2.5704 20.738 -5.7188 2.3294 17.4 -0 0 -0 21.786 -0.59787 -55.72 7.1909 -20.376 50.504 -1.6307 30.028 -12.755 -0 0 -0 12.266 -14.522 -103.66 2.3362 -1.9391 92.598 -0.43114 -6.3835 -96.686 6.9753 -10.999 -3.4734 6.9753 -10.999 -3.4734 -83.728 42.606 17.063 -4.5407 -6.1812 50.773 10.634 -0.70539 -88.54 -10.099 -2.3397 -9.4435 -0.67993 0.82222 0.93938 -0 0 -0 -83.728 42.606 17.063 0.6082 1.5439 -3.9338 -11.894 5.6195 -48.829 -2.4816 -0.97325 6.195 -1.5624 0.94308 0.9106 -0 0 -0 
148.82 56.584 -45.869 -0 0 -0 -111.56 48.722 34.494 -6.4129 1.307 18.587 -6.4129 1.307 18.587 -5.3633 1.239 15.604 -0 0 -0 20.308 2.9524 -49.794 6.7706 -17.947 48.588 -3.4377 25.953 -15.753 -0 0 -0 15.486 -10.428 -97.416 2.4487 -2.1715 91.936 0.65588 -6.9616 -95.08 8.4463 -8.65 0.32457 8.4463 -8.65 0.32458 -111.56 48.722 34.494 -4.808 -6.7102 47.763 11.498 0.94506 -83.808 -7.6689 -2.5953 -11.539 -1.5856 1.0406 0.84668 -0 0 -0 -111.56 48.722 34.494 0.97216 1.9762 -3.4498 -10.837 4.2349 -51.304 -1.0024 -2.4676 5.6915 -1.7402 1.0603 0.70306 -0 0 -0 
144.22 56.302 -42.847 -0 0 -0 -137.01 46.958 48.98 -5.7404 0.10031 16.95 -5.7404 0.1003 16.95 -4.8238 0.19858 14.239 -0 0 -0 17.352 6.2317 -45.132 7.257 -14.834 46.917 -4.5187 22.993 -17.736 -0 0 -0 17.04 -5.4104 -92.661 2.6007 -2.0745 91.285 1.6177 -5.6884 -93.327 9.2256 -5.5723 3.3094 9.2256 -5.5723 3.3094 -137.01 46.958 48.98 -4.2791 -6.7865 45.257 10.92 3.4313 -79.679 -6.0349 -2.4783 -12.872 -1.2787 0.97098 0.58704 -0 0 -0 -137.01 46.958 48.98 0.76374 2.6098 -2.7508 -9.5627 2.6207 -53.198 -0.51764 -3.3224 5.1635 -0.6767 0.713 0.35502 -0 0 -0 
139.9 56.372 -40.687 -0 0 -0 -155.05 40.458 55.679 -5.1922 -0.11428 15.871 -5.1922 -0.11428 15.871 -4.3666 0.00067507 13.334 -0 0 -0 13.231 7.5758 -41.094 8.6853 -12.534 45.296 -3.6072 20.172 -18.443 -0 0 -0 16.575 -2.5806 -88.917 2.6926 -1.767 90.648 2.4559 -3.6719 -91.661 8.96 -3.8748 5.4906 8.96 -3.8748 5.4906 -155.05 40.458 55.679 -3.4833 -6.3882 43.304 9.213 4.9534 -76.341 -5.9266 -1.3335 -13.357 -0.46083 0.37113 0.25921 -0 0 -0 -155.05 40.458 55.679 0.11435 3.1684 -1.9576 -8.7801 2.0545 -54.279 0.016998 -2.9032 4.6523 -0.33276 -0.31284 0.011328 -0 0 -0 
136.18 56.502 -39.331 -0 0 -0 -169.13 32.026 57.561 -3.9442 0.45029 15.384 -3.9442 0.45029 15.384 -3.3072 0.44974 12.921 -0 0 -0 7.593 7.1175 -38.363 9.1147 -10.696 43.453 -0.67602 14.947 -18.22 -0 0 -0 12.933 -1.2421 -86.468 2.6769 -1.4099 90.034 2.9808 -2.7316 -90.217 6.8445 -3.3351 6.6693 6.8445 -3.3351 6.6693 -169.13 32.026 57.561 -2.6198 -5.4569 41.662 6.4679 4.8556 -73.554 -5.1943 1.0377 -12.756 -0.95044 -0.80429 -0.41529 -0 0 -0 -169.13 32.026 57.561 -0.52934 3.1929 -1.1436 -7.5088 2.6117 -54.427 2.1222 -0.83187 4.8994 -1.9849 -1.8106 -1.0807 -0 0 -0 
133.3 56.365 -38.646 -0 0 -0 179.07 25.009 56.656 -1.2488 0.44643 15.809 -1.2488 0.44643 15.809 -1.0414 0.39843 13.279 -0 0 -0 1.7652 7.3836 -38.022 6.5128 -8.3887 41.452 2.5011 8.2637 -18.371 -0 0 -0 6.1284 2.6263 -86.578 2.9083 -0.84577 89.439 2.6715 -2.7194 -89.113 2.8084 -1.2275 6.1514 2.8084 -1.2275 6.1514 179.07 25.009 56.656 -1.3265 -4.4167 41.029 1.9595 5.2089 -72.245 -1.8368 4.0741 -10.596 -2.5156 -1.6057 -1.4363 -0 0 -0 179.07 25.009 56.656 -1.3 2.643 -0.30289 -3.9314 3.0398 -53.121 4.2299 0.35744 5.7209 -2.8162 -1.3801 -1.8761 -0 0 -0 
131.41 55.701 -38.446 -0 0 -0 171.65 23.177 54.824 0.98066 -0.67466 15.534 0.98066 -0.67466 15.534 0.812 -0.58498 13.048 -0 0 -0 -1.4533 9.499 -35.819 3.6953 -6.0281 39.671 4.5475 3.6519 -19.939 -0 0 -0 1.0823 8.7225 -84.283 3.4145 -0.22466 87.606 0.70122 -1.0811 -87.882 -0.31463 2.6884 6.0761 -0.31463 2.6884 6.0761 171.65 23.177 54.824 0.020002 -4.0879 40.727 -2.8621 7.3647 -71.77 1.0592 5.6219 -8.6127 -2.1824 -0.90271 -1.1132 -0 0 -0 171.65 23.177 54.824 -2.5453 1.8296 -0.061429 -0.024404 2.6813 -50.463 4.1509 -0.10633 5.2066 -0.92763 -0.31103 -0.12419 -0 0 -0 
130.59 54.314 -38.564 -0 0 -0 168.96 24.155 53.552 1.6924 -1.1815 13.037 1.6925 -1.1815 13.037 1.4042 -1.0189 10.949 -0 0 -0 -3.2538 10.533 -29.394 2.749 -5.4492 36.811 7.0709 2.1603 -21.002 -0 0 -0 -1.3224 11.042 -75.647 3.4012 -0.23438 82.553 -1.4642 1.7699 -84.524 -1.8073 4.7235 8.0239 -1.8073 4.7235 8.024 168.96 24.155 53.552 0.38913 -4.1762 36.973 -4.3073 8.0241 -67.072 0.74791 5.8905 -9.3052 -0.53972 -0.67018 0.33547 -0 0 -0 168.96 24.155 53.552 -2.7947 1.7265 -0.81081 1.0478 2.4188 -48.085 3.6874 0.97756 4.1346 0.11588 -1.225 1.1427 -0 0 -0 
130.83 52.152 -38.872 -0 0 -0 167.41 26.18 51.027 2.5599 -0.58923 10.892 2.5599 -0.58923 10.892 2.1435 -0.52784 9.1473 -0 0 -0 -5.8889 10.357 -24.884 1.975 -6.6988 33.736 11.05 1.4894 -20.251 -0 0 -0 -5.157 10.309 -67.541 3.234 -0.24481 76.42 -2.2976 2.9793 -79.189 -4.1121 4.5026 9.1402 -4.1121 4.5026 9.1402 167.41 26.18 51.027 0.72171 -4.2009 32.41 -5.7165 7.0531 -59.875 0.66804 7.7224 -11.061 -0.14751 -1.296 1.0485 -0 0 -0 167.41 26.18 51.027 -2.7397 1.6002 -1.1042 1.8682 3.3931 -46.851 4.1921 2.2368 3.764 -0.51442 -1.4578 0.97663 -0 0 -0 
132.11 49.337 -39.285 -0 0 -0 165.12 30.975 47.109 4.0025 -0.35983 10.311 4.0025 -0.35982 10.311 3.3588 -0.35078 8.6598 -0 0 -0 -8.8533 11.267 -24.457 1.0718 -7.7038 32.504 15.072 0.21769 -19.149 -0 0 -0 -9.8531 10.67 -64.282 3.3237 -0.079517 72.598 -3.533 2.6437 -74.57 -7.1311 4.5127 8.5553 -7.1311 4.5127 8.5553 165.12 30.975 47.109 1.7105 -4.3802 30.328 -8.1023 6.4336 -55.486 2.0156 9.2196 -12.035 -0.62602 -1.3195 0.76257 -0 0 -0 165.12 30.975 47.109 -2.9893 0.9327 -1.2787 3.6301 4.4622 -46.208 4.7277 3.1285 4.1963 -0.75278 -1.175 0.35995 -0 0 -0 
